<svg xmlns="http://www.w3.org/2000/svg" xmlns:xlink="http://www.w3.org/1999/xlink" viewBox="0 0 400 149.31"><defs><style>.cls-1{fill:none;}.cls-2{fill:url(#radial-gradient);}.cls-3{opacity:0.7;isolation:isolate;fill:url(#linear-gradient);}.cls-4{fill:url(#linear-gradient-2);}.cls-5{fill:#1c0008;fill-rule:evenodd;}</style><radialGradient id="radial-gradient" cx="1497.23" cy="7.78" r="0.72" gradientTransform="matrix(-144.9, 32.65, 39.12, 173.61, 216739.97, -50207.14)" gradientUnits="userSpaceOnUse"><stop offset="0"/><stop offset="0.12" stop-color="#1c0008"/><stop offset="1" stop-opacity="0"/></radialGradient><linearGradient id="linear-gradient" x1="82.85" y1="-819.39" x2="82.85" y2="-879.92" gradientTransform="matrix(1, 0, 0, -1, 0, -756.89)" gradientUnits="userSpaceOnUse"><stop offset="0" stop-color="#1b0008"/><stop offset="1" stop-color="#1b0008" stop-opacity="0.5"/></linearGradient><linearGradient id="linear-gradient-2" x1="97.25" y1="-817.92" x2="97.25" y2="-905.77" gradientTransform="matrix(1, 0, 0, -1, 0, -756.89)" gradientUnits="userSpaceOnUse"><stop offset="0" stop-color="#150006"/><stop offset="1" stop-color="#1b0008" stop-opacity="0"/></linearGradient></defs><title>Asset 50</title><g id="Layer_2" data-name="Layer 2"><g id="Layer_1-2" data-name="Layer 1"><rect class="cls-1"/><path class="cls-2" d="M109.35,54.45a2.27,2.27,0,0,1-2.58,2.16,44.24,44.24,0,0,0-9.2,0c-6.18.65-11.32,2.55-16.06,4.31h0l-.85.32c-5,1.86-9.67,3.46-15.17,3.58a31.82,31.82,0,0,1-7.15-.65,5.62,5.62,0,0,1-4.46-4.39,28,28,0,1,1,55.48-5.47Z"/><path class="cls-3" d="M55.83,68.37a2.61,2.61,0,0,0-3,3.65l27.49,50.4a1.17,1.17,0,0,0,2,0l30.34-55.63a3.3,3.3,0,0,0-2.16-4.88A41.12,41.12,0,0,0,98,61.23c-5.58.58-10.21,2.29-15,4.07l-.77.29c-5,1.86-10.32,3.72-16.67,3.87A37.88,37.88,0,0,1,55.83,68.37Z"/><path class="cls-4" d="M81.34,66.9a1.4,1.4,0,0,1,.91-1.31L83,65.3c4.81-1.78,9.44-3.49,15-4.07a41.12,41.12,0,0,1,12.52.68,3.3,3.3,0,0,1,2.16,4.88L82.38,122.42a1.16,1.16,0,0,1-1,.61Z"/><path class="cls-5" d="M170.22,47.84a26.4,26.4,0,0,0-7.33-1.1,26.73,26.73,0,0,0-12.1,2.94,20.74,20.74,0,0,0-8.43,8.43,25,25,0,0,0-2.93,12.47A25.19,25.19,0,0,0,142.54,83,22,22,0,0,0,151,91.48a23,23,0,0,0,11.74,3.11,22.19,22.19,0,0,0,11-2.56,18.77,18.77,0,0,0,7.88-7.7A23.9,23.9,0,0,0,184.52,72V70c0-.26,0-.56,0-.87v-.38a.77.77,0,0,0-.77-.77h-19a.76.76,0,0,0-.77.77v6.71a.76.76,0,0,0,.77.77h8.67a.51.51,0,0,1,.5.58,14.73,14.73,0,0,1-.77,2.72,8.22,8.22,0,0,1-3.85,4.4,13.49,13.49,0,0,1-6.6,1.47,12.21,12.21,0,0,1-10.82-7,17,17,0,0,1-1.65-7.7,17,17,0,0,1,1.65-7.7,11.43,11.43,0,0,1,4.58-5.13,11.94,11.94,0,0,1,6.6-1.84,14.15,14.15,0,0,1,6.24,1.47,12.12,12.12,0,0,1,4.32,3.92.8.8,0,0,0,1.1.22l6.82-4.65a.76.76,0,0,0,.22-1A18.93,18.93,0,0,0,177,51.14,23.63,23.63,0,0,0,170.22,47.84Zm58.72,1.49,8.18-2.16a.77.77,0,0,1,1,.75V93.09a.78.78,0,0,1-.77.77h-8.18a.77.77,0,0,1-.77-.77v-43A.77.77,0,0,1,228.94,49.33Zm96.51,19a7.78,7.78,0,0,1,4-1.1,8.74,8.74,0,0,1,4,1.1,6.71,6.71,0,0,1,2.75,3.11,12.54,12.54,0,0,1,0,10.27,6.14,6.14,0,0,1-2.75,3.3,8,8,0,0,1-8.07,0,8.23,8.23,0,0,1-2.75-3.3,12.54,12.54,0,0,1,0-10.27A6.47,6.47,0,0,1,325.45,68.38Zm13.2-7.52a18.3,18.3,0,0,0-9.17-2.2,19.28,19.28,0,0,0-9.16,2.2,16.64,16.64,0,0,0-6.42,6.42,17.74,17.74,0,0,0-2.38,9.35A19.62,19.62,0,0,0,313.9,86a15.44,15.44,0,0,0,6.42,6.41,20.19,20.19,0,0,0,18.33,0A16.55,16.55,0,0,0,345.07,86a17.77,17.77,0,0,0,2.38-9.35,19.71,19.71,0,0,0-2.38-9.35A15.52,15.52,0,0,0,338.65,60.86Zm-69.39,29.5a.16.16,0,0,1,.28.08v2.65a.78.78,0,0,0,.77.77h8.18a.77.77,0,0,0,.77-.77V60.53a.76.76,0,0,0-.77-.77h-8.18a.77.77,0,0,0-.77.77v2.95a.27.27,0,0,1-.48.16,14.42,14.42,0,0,0-1.72-1.86,10.91,10.91,0,0,0-8.06-2.94,13.36,13.36,0,0,0-7.89,2.39,15.35,15.35,0,0,0-5.31,6.41,21.48,21.48,0,0,0-1.84,9.17A21.48,21.48,0,0,0,246.08,86a15.2,15.2,0,0,0,5.31,6.41,13,13,0,0,0,7.89,2.39,14.22,14.22,0,0,0,8.25-2.57A6.17,6.17,0,0,0,269.26,90.36Zm-3.38-5.48a8,8,0,0,1-8.07,0,8.37,8.37,0,0,1-2.75-3.3,14,14,0,0,1-.92-5,10.13,10.13,0,0,1,.92-4.77,9.2,9.2,0,0,1,2.75-3.12,7.88,7.88,0,0,1,4-1.1,7.43,7.43,0,0,1,4,1.1,7.78,7.78,0,0,1,2.75,3.12,12.25,12.25,0,0,1,.91,4.77,10.92,10.92,0,0,1-.91,5A8.45,8.45,0,0,1,265.88,84.88Zm34.71-17.6a.25.25,0,0,0-.25.25V80.66c0,3.12,1.28,4.77,3.85,4.77h2.9a.76.76,0,0,1,.76.76v6.9a.77.77,0,0,1-.76.77h-4.18c-3.85,0-7-1.1-9-3.3q-3.3-3.3-3.3-9.35V67.53a.25.25,0,0,0-.25-.25h-5.68a.77.77,0,0,1-.72-1l2-6a.78.78,0,0,1,.73-.52h3.64a.25.25,0,0,0,.25-.26V50.33a.78.78,0,0,1,.57-.75l8.51-2.24a.52.52,0,0,1,.64.5V59.5a.25.25,0,0,0,.25.26h6.7a.77.77,0,0,1,.73,1l-2,6a.75.75,0,0,1-.72.52Zm-94.51-8.62a15.57,15.57,0,0,1,8.43,2.2,15,15,0,0,1,5.69,6.42,19.54,19.54,0,0,1,2,9.35v1.61a.76.76,0,0,1-.76.77H199.69a.5.5,0,0,0-.5.58,10.75,10.75,0,0,0,.66,2.35,6.63,6.63,0,0,0,2.75,3.12,9.66,9.66,0,0,0,4.4,1.1,10.42,10.42,0,0,0,4.4-.92A7.54,7.54,0,0,0,214.2,83a.81.81,0,0,1,1.13-.14l5.58,4.52a.74.74,0,0,1,.11,1,14.89,14.89,0,0,1-5.77,4.37A20.74,20.74,0,0,1,207,94.41a19.5,19.5,0,0,1-9.35-2.2,15.1,15.1,0,0,1-6.24-6.42,21,21,0,0,1,0-18.7,17,17,0,0,1,6.05-6.41A18.61,18.61,0,0,1,206.08,58.66ZM199.9,72.59a.5.5,0,0,1-.49-.61,10.36,10.36,0,0,1,1.35-3.24,6.06,6.06,0,0,1,5.32-2.56,5.93,5.93,0,0,1,5.13,2.56A10.17,10.17,0,0,1,212.54,72a.5.5,0,0,1-.49.61Z"/></g></g></svg>